<svg id="visual" viewBox="0 0 900 600" width="900" height="600" xmlns="http://www.w3.org/2000/svg" xmlns:xlink="http://www.w3.org/1999/xlink" version="1.1"><rect x="0" y="0" width="900" height="600" fill="#001220"></rect><defs><linearGradient id="grad1_0" x1="33.3%" y1="0%" x2="100%" y2="100%"><stop offset="20%" stop-color="#fbae3c" stop-opacity="1"></stop><stop offset="80%" stop-color="#fbae3c" stop-opacity="1"></stop></linearGradient></defs><defs><linearGradient id="grad1_1" x1="33.3%" y1="0%" x2="100%" y2="100%"><stop offset="20%" stop-color="#fbae3c" stop-opacity="1"></stop><stop offset="80%" stop-color="#96446e" stop-opacity="1"></stop></linearGradient></defs><defs><linearGradient id="grad1_2" x1="33.3%" y1="0%" x2="100%" y2="100%"><stop offset="20%" stop-color="#001220" stop-opacity="1"></stop><stop offset="80%" stop-color="#96446e" stop-opacity="1"></stop></linearGradient></defs><defs><linearGradient id="grad2_0" x1="0%" y1="0%" x2="66.7%" y2="100%"><stop offset="20%" stop-color="#fbae3c" stop-opacity="1"></stop><stop offset="80%" stop-color="#fbae3c" stop-opacity="1"></stop></linearGradient></defs><defs><linearGradient id="grad2_1" x1="0%" y1="0%" x2="66.7%" y2="100%"><stop offset="20%" stop-color="#96446e" stop-opacity="1"></stop><stop offset="80%" stop-color="#fbae3c" stop-opacity="1"></stop></linearGradient></defs><defs><linearGradient id="grad2_2" x1="0%" y1="0%" x2="66.7%" y2="100%"><stop offset="20%" stop-color="#96446e" stop-opacity="1"></stop><stop offset="80%" stop-color="#001220" stop-opacity="1"></stop></linearGradient></defs><g transform="translate(900, 0)"><path d="M0 405.6C-27.9 399.9 -55.7 394.3 -74.3 373.7C-92.9 353.1 -102.2 317.6 -131.3 316.9C-160.3 316.2 -209 350.3 -225.4 337.3C-241.7 324.3 -225.6 264.1 -239 239C-252.4 213.9 -295.3 223.7 -317.6 212.2C-339.9 200.7 -341.6 167.9 -338.1 140.1C-334.7 112.2 -326 89.4 -336.4 66.9C-346.8 44.4 -376.2 22.2 -405.6 0L0 0Z" fill="#3d3056"></path><path d="M0 270.4C-18.6 266.6 -37.2 262.8 -49.6 249.1C-61.9 235.4 -68.2 211.7 -87.5 211.3C-106.9 210.8 -139.4 233.5 -150.2 224.8C-161.1 216.2 -150.4 176.1 -159.3 159.3C-168.3 142.6 -196.9 149.1 -211.7 141.5C-226.6 133.8 -227.7 111.9 -225.4 93.4C-223.1 74.8 -217.3 59.6 -224.3 44.6C-231.2 29.6 -250.8 14.8 -270.4 0L0 0Z" fill="#e1685e"></path><path d="M0 135.2C-9.3 133.3 -18.6 131.4 -24.8 124.6C-31 117.7 -34.1 105.9 -43.8 105.6C-53.4 105.4 -69.7 116.8 -75.1 112.4C-80.6 108.1 -75.2 88 -79.7 79.7C-84.1 71.3 -98.4 74.6 -105.9 70.7C-113.3 66.9 -113.9 56 -112.7 46.7C-111.6 37.4 -108.7 29.8 -112.1 22.3C-115.6 14.8 -125.4 7.4 -135.2 0L0 0Z" fill="#fbae3c"></path></g><g transform="translate(0, 600)"><path d="M0 -405.6C24.7 -392.5 49.3 -379.3 73.4 -368.8C97.4 -358.3 120.8 -350.4 138.9 -335.4C157 -320.3 169.7 -298.1 194.4 -291C219.2 -284 255.9 -292.2 285 -285C314.1 -277.8 335.5 -255.2 337.3 -225.4C339 -195.5 321 -158.4 317.8 -131.6C314.6 -104.9 326.2 -88.5 343.3 -68.3C360.4 -48.1 383 -24 405.6 0L0 0Z" fill="#3d3056"></path><path d="M0 -270.4C16.4 -261.6 32.9 -252.9 48.9 -245.9C64.9 -238.8 80.6 -233.6 92.6 -223.6C104.7 -213.5 113.2 -198.7 129.6 -194C146.1 -189.3 170.6 -194.8 190 -190C209.4 -185.2 223.7 -170.1 224.8 -150.2C226 -130.3 214 -105.6 211.9 -87.8C209.7 -69.9 217.5 -59 228.8 -45.5C240.2 -32 255.3 -16 270.4 0L0 0Z" fill="#e1685e"></path><path d="M0 -135.2C8.2 -130.8 16.4 -126.4 24.5 -122.9C32.5 -119.4 40.3 -116.8 46.3 -111.8C52.3 -106.8 56.6 -99.4 64.8 -97C73.1 -94.7 85.3 -97.4 95 -95C104.7 -92.6 111.8 -85.1 112.4 -75.1C113 -65.2 107 -52.8 105.9 -43.9C104.9 -35 108.7 -29.5 114.4 -22.8C120.1 -16 127.7 -8 135.2 0L0 0Z" fill="#fbae3c"></path></g></svg>