<svg id="visual" viewBox="0 0 960 540" width="960" height="540" xmlns="http://www.w3.org/2000/svg" xmlns:xlink="http://www.w3.org/1999/xlink" version="1.1"><rect x="0" y="0" width="960" height="540" fill="#FFFFFF"></rect><path d="M0 305L14.5 271.3C29 237.7 58 170.3 87.2 154C116.3 137.7 145.7 172.3 174.8 176.8C204 181.3 233 155.7 262 150.8C291 146 320 162 349 173.2C378 184.3 407 190.7 436.2 205.5C465.3 220.3 494.7 243.7 523.8 219.7C553 195.7 582 124.3 611 97C640 69.7 669 86.3 698 120.7C727 155 756 207 785.2 217.3C814.3 227.7 843.7 196.3 872.8 180.7C902 165 931 165 945.5 165L960 165L960 0L945.5 0C931 0 902 0 872.8 0C843.7 0 814.3 0 785.2 0C756 0 727 0 698 0C669 0 640 0 611 0C582 0 553 0 523.8 0C494.7 0 465.3 0 436.2 0C407 0 378 0 349 0C320 0 291 0 262 0C233 0 204 0 174.8 0C145.7 0 116.3 0 87.2 0C58 0 29 0 14.5 0L0 0Z" fill="#0066FF" stroke-linecap="round" stroke-linejoin="miter"></path></svg>